<svg width="17" height="16" viewBox="0 0 17 16" fill="none" xmlns="http://www.w3.org/2000/svg">
<path fill-rule="evenodd" clip-rule="evenodd" d="M4.49505 2.02642C4.83001 1.41765 5.1944 1.01069 5.73511 0.795478C6.72595 0.401494 10.2746 0.401494 11.2647 0.795556C11.8051 1.01065 12.1696 1.41754 12.5048 2.02619L12.8817 2.74881C12.8903 2.76313 12.8982 2.77572 12.9053 2.78656L12.9373 2.83031C13.109 3.0174 13.3964 3.13042 13.586 3.13042C15.3794 3.13042 16.8335 4.58425 16.8335 6.37708V11.2063C16.8335 13.4931 14.9787 15.3479 12.6919 15.3479H4.30854C2.02112 15.3479 0.16687 13.4934 0.16687 11.2063V6.37708C0.16687 4.58425 1.62102 3.13042 3.41437 3.13042C3.60335 3.13042 3.8911 3.01723 4.06307 2.83031C4.06651 2.82657 4.07099 2.82099 4.07641 2.81361L4.11927 2.74788L4.49505 2.02642ZM11.4099 2.62923C11.2016 2.25104 11.0134 2.04091 10.8024 1.95694L10.703 1.92389C9.84535 1.68148 6.86221 1.6925 6.19716 1.95694C5.98632 2.04087 5.79827 2.25088 5.59022 2.629L5.2695 3.24908L5.19056 3.39194C5.12467 3.50155 5.05876 3.59407 4.98349 3.67608C4.56144 4.13483 3.93708 4.38042 3.41437 4.38042L3.27762 4.38502C2.23833 4.4553 1.41687 5.3206 1.41687 6.37708V11.2063C1.41687 12.803 2.71153 14.0979 4.30854 14.0979H12.6919C14.2884 14.0979 15.5835 12.8027 15.5835 11.2063V6.37708C15.5835 5.27466 14.6891 4.38042 13.586 4.38042L13.4409 4.37435C12.9505 4.33399 12.3996 4.09305 12.0164 3.67552C11.9421 3.59461 11.8766 3.50274 11.8111 3.39406C11.8017 3.37847 11.79 3.35794 11.7766 3.33366L11.6798 3.1522L11.4099 2.62923Z" fill="#1B5E37"/>
<path d="M13.0872 5.08398C13.5474 5.08398 13.9205 5.45708 13.9205 5.91732C13.9205 6.34468 13.5988 6.69691 13.1844 6.74504L13.0872 6.75065C12.6194 6.75065 12.2463 6.37756 12.2463 5.91732C12.2463 5.48995 12.568 5.13773 12.9825 5.08959L13.0872 5.08398Z" fill="#1B5E37"/>
<path fill-rule="evenodd" clip-rule="evenodd" d="M5.22583 8.94018C5.22583 7.13167 6.69149 5.66602 8.5 5.66602C10.3085 5.66602 11.7742 7.13167 11.7742 8.94018C11.7742 10.7487 10.3085 12.2143 8.5 12.2143C6.69149 12.2143 5.22583 10.7487 5.22583 8.94018ZM10.5242 8.94018C10.5242 7.82203 9.61815 6.91602 8.5 6.91602C7.38184 6.91602 6.47583 7.82203 6.47583 8.94018C6.47583 10.0583 7.38184 10.9643 8.5 10.9643C9.61815 10.9643 10.5242 10.0583 10.5242 8.94018Z" fill="#1B5E37"/>
</svg>
