<svg width="26" height="38" viewBox="0 0 26 38" fill="none" xmlns="http://www.w3.org/2000/svg">
<g clip-path="url(#clip0_68_1665)">
<path d="M25.9116 24.7641C25.9116 24.8196 25.9107 24.8761 25.9107 24.9324C25.9062 25.4115 25.8758 25.8853 25.8204 26.3527C25.6836 27.5187 25.394 28.6416 24.9721 29.7002C24.9524 29.7494 24.9328 29.7987 24.9122 29.8479C24.8916 29.8963 24.871 29.9455 24.8514 29.9947C24.8299 30.0431 24.8093 30.0923 24.7879 30.1407C24.7772 30.1639 24.7664 30.1872 24.7566 30.2114C24.7432 30.2409 24.7298 30.2705 24.7164 30.3001C24.6949 30.3475 24.6726 30.3959 24.6502 30.4442C22.8526 34.2609 19.294 37.0988 15.0157 37.7982C14.9594 37.8071 14.9031 37.8161 14.8468 37.8242C14.6332 37.8555 14.4177 37.8824 14.2014 37.9039C13.817 37.9407 13.4282 37.9603 13.034 37.963C5.84252 38.0052 0 32.1781 0 24.9835C0 24.868 0.00178082 24.7525 0.00445205 24.6379C0.00623288 24.5805 0.0080137 24.5233 0.0106849 24.4659C0.0124658 24.4238 0.0142466 24.3817 0.0169178 24.3396C0.0285822 24.096 0.0481712 23.8543 0.0750616 23.6142C0.086726 23.5058 0.100082 23.3974 0.114418 23.2901C0.140329 23.1002 0.170692 22.9112 0.204705 22.7232C0.21539 22.6686 0.225274 22.613 0.236849 22.5575C0.256527 22.4554 0.277986 22.3533 0.300336 22.2522C0.31013 22.2092 0.320014 22.1662 0.330699 22.1232C0.419205 21.7444 0.52561 21.3719 0.648041 21.0056C0.665048 20.9537 0.682945 20.9017 0.701644 20.8498C0.71598 20.8068 0.731116 20.7647 0.747233 20.7217C0.779377 20.6312 0.81339 20.5417 0.848206 20.4521C0.864322 20.4091 0.88124 20.367 0.898247 20.3249C0.925938 20.255 0.954521 20.1852 0.984082 20.1154C1.00732 20.0599 1.03145 20.0043 1.05558 19.9488C1.07971 19.8933 1.10384 19.8386 1.12886 19.7841C1.15745 19.7213 1.18701 19.6587 1.21559 19.5969C1.23794 19.5504 1.26029 19.5038 1.28353 19.4572C1.31033 19.4026 1.33713 19.3488 1.36402 19.2951C1.39171 19.2414 1.41851 19.1877 1.44719 19.1348C1.47488 19.0811 1.50257 19.0283 1.53213 18.9754C1.56071 18.9226 1.58938 18.8697 1.61886 18.8178C1.64477 18.7713 1.67157 18.7247 1.69837 18.679C1.85571 18.405 2.02373 18.1372 2.20163 17.8758C2.22932 17.8337 2.2579 17.7916 2.28747 17.7504C2.83632 16.9614 3.47011 16.2344 4.1754 15.5806C4.43825 15.3379 4.71081 15.1051 4.99245 14.883C9.33409 11.4603 11.3016 5.82655 10.0448 0.437331C9.96619 0.0997021 10.2728 0.00211549 10.4605 0.0460028C10.4694 0.0486789 10.4784 0.0513549 10.4873 0.054031C10.4917 0.055815 10.4971 0.057599 10.5016 0.058491C10.5624 0.0790967 10.6231 0.0988103 10.6831 0.120308C10.8404 0.174008 10.9968 0.231364 11.1515 0.290416C11.1962 0.307453 11.2409 0.325383 11.2847 0.342331C11.3383 0.363829 11.392 0.385327 11.4447 0.406824C11.4894 0.424754 11.5332 0.442683 11.577 0.461416C11.628 0.482913 11.678 0.504411 11.7281 0.525909C11.7844 0.550082 11.8408 0.575148 11.897 0.600214C12.0258 0.657571 12.1536 0.716623 12.2805 0.777547C12.3368 0.804397 12.3932 0.832139 12.4486 0.85997C12.5559 0.912777 12.6631 0.967458 12.7695 1.02294C12.824 1.05158 12.8777 1.07932 12.9313 1.10893C12.9965 1.1439 13.0609 1.17878 13.1252 1.21553C13.5105 1.42863 13.8885 1.65877 14.2605 1.90417C14.3257 1.94716 14.3901 1.99016 14.4545 2.03404C14.9622 2.37881 15.4574 2.7531 15.9384 3.15255C15.9983 3.20179 16.0572 3.25192 16.1163 3.30214C16.3048 3.46244 16.4917 3.6263 16.6759 3.79471C16.734 3.84841 16.7921 3.9022 16.8502 3.9559C17.1497 4.23439 17.4429 4.52367 17.7308 4.82276C17.7799 4.87468 17.8299 4.92668 17.8792 4.97949C17.9418 5.04577 18.0043 5.11205 18.066 5.17921C18.1143 5.23202 18.1625 5.28492 18.2108 5.33773C18.2662 5.39865 18.3207 5.45859 18.3752 5.52041C18.436 5.58847 18.4959 5.65653 18.5558 5.72549C18.5978 5.77383 18.6399 5.82307 18.6819 5.87142C18.7409 5.94037 18.799 6.00933 18.8571 6.07828C18.9098 6.14188 18.9626 6.20459 19.0145 6.2681C19.0672 6.3317 19.12 6.39619 19.1709 6.4606C19.2201 6.52063 19.2683 6.58147 19.3157 6.64239C19.3469 6.68004 19.3765 6.71759 19.406 6.75612C19.448 6.80804 19.4891 6.86094 19.5293 6.91464C19.5633 6.95852 19.5972 7.00241 19.6303 7.0463C19.7312 7.17885 19.8305 7.3123 19.9297 7.44664C20.0298 7.58365 20.1291 7.72066 20.2265 7.85946C20.2739 7.92574 20.3194 7.99202 20.3659 8.05829C20.4133 8.12635 20.4607 8.1962 20.508 8.26515C20.5554 8.33411 20.6019 8.40395 20.6484 8.4738C20.6859 8.52839 20.7225 8.58396 20.7592 8.63944C21.4618 9.70603 22.1019 10.829 22.6731 11.9869C22.7401 12.123 22.8063 12.2592 22.8715 12.3962C23.1933 13.0705 23.491 13.7556 23.7645 14.4478C23.7949 14.5248 23.8253 14.6019 23.8548 14.6789C23.8852 14.7558 23.9147 14.8329 23.9433 14.9108C23.9728 14.9878 24.0015 15.0648 24.0301 15.1427C24.0586 15.2197 24.0873 15.2968 24.115 15.3746C24.2026 15.6173 24.2876 15.8609 24.3689 16.1045C24.3912 16.1725 24.4144 16.2397 24.4359 16.3078C24.4618 16.3856 24.4877 16.4636 24.5119 16.5415C24.5369 16.6202 24.5619 16.6982 24.586 16.7761C24.6522 16.9892 24.7166 17.2024 24.7773 17.4155C24.7889 17.4567 24.8005 17.497 24.8122 17.5372C24.8292 17.5964 24.8452 17.6554 24.8622 17.7146C24.8837 17.7933 24.9052 17.8722 24.9266 17.9501C24.9472 18.0279 24.9677 18.1068 24.9883 18.1847C25.0107 18.2671 25.0312 18.3494 25.0518 18.4318C25.0876 18.5742 25.1224 18.7166 25.1573 18.859C25.1779 18.9477 25.1985 19.0364 25.219 19.125C25.2529 19.2773 25.287 19.4286 25.3191 19.5809C25.32 19.5853 25.3209 19.5898 25.3218 19.5943C25.3548 19.7502 25.3862 19.9051 25.4165 20.06C25.5229 20.6071 25.6132 21.1525 25.6856 21.6934C25.6963 21.7713 25.7062 21.8484 25.716 21.9254C25.7195 21.9558 25.7231 21.9854 25.7266 22.0158C25.7445 22.1573 25.7607 22.2979 25.7749 22.4384C25.7838 22.5172 25.7919 22.5961 25.799 22.6739C25.8143 22.8307 25.8285 22.9874 25.8402 23.1423C25.8517 23.2937 25.8625 23.445 25.8714 23.5955C25.8768 23.6859 25.8821 23.7764 25.8858 23.8659C25.8893 23.9331 25.892 24.0012 25.8956 24.0683V24.0728C25.8982 24.1462 25.9009 24.2196 25.9036 24.2922V24.3111C25.9053 24.3836 25.9071 24.4561 25.9089 24.5287C25.9107 24.6074 25.9116 24.6862 25.9116 24.7641Z" fill="url(#paint0_radial_68_1665)"/>
<path d="M20.0433 30.6393C19.2768 34.4074 15.5849 36.9018 11.8351 36.0799C8.11534 35.2646 5.77303 31.5741 6.60779 27.8576C7.03706 25.9466 8.26244 24.4112 9.85538 23.4872C12.5507 21.9237 14.223 19.1475 14.6475 16.0564C14.6482 16.0512 14.649 16.0489 14.6499 16.0494C19.1395 18.4908 21.0724 25.58 20.0433 30.6393Z" fill="url(#paint1_radial_68_1665)"/>
<path d="M25.9116 24.7641C25.9116 24.8196 25.9107 24.8761 25.9107 24.9324C25.9045 25.4124 25.8731 25.8871 25.8177 26.3545C25.6792 27.5204 25.3913 28.6434 24.9721 29.7002C24.9524 29.7494 24.9328 29.7987 24.9122 29.8479C24.8916 29.8963 24.871 29.9455 24.8514 29.9947C24.8299 30.0431 24.8093 30.0923 24.7879 30.1407C24.7772 30.1639 24.7664 30.1872 24.7566 30.2114C24.7432 30.2409 24.7298 30.2705 24.7164 30.3001C24.6949 30.3475 24.6726 30.3959 24.6502 30.4442C22.857 34.2663 19.3101 37.1033 15.0157 37.7982C14.9594 37.8071 14.9031 37.8161 14.8468 37.8242C14.6332 37.8564 14.4177 37.8824 14.2014 37.9039C13.817 37.9407 13.4282 37.9603 13.034 37.963C5.84252 38.0052 0 32.1781 0 24.9835C0 24.868 0.00178082 24.7525 0.00445205 24.6379C0.00623288 24.5805 0.0080137 24.5233 0.0106849 24.4659C0.0124658 24.4238 0.0142466 24.3817 0.0169178 24.3396C0.0285822 24.096 0.0481712 23.8543 0.0750616 23.6142C0.086726 23.5058 0.100082 23.3974 0.114418 23.2901C0.140329 23.1002 0.170692 22.9112 0.204705 22.7232C0.21539 22.6686 0.225274 22.613 0.236849 22.5575C0.256527 22.4554 0.277986 22.3533 0.300336 22.2522C0.31013 22.2092 0.320014 22.1662 0.330699 22.1232C0.419205 21.7444 0.52561 21.3719 0.648041 21.0056C0.665048 20.9537 0.682945 20.9017 0.701644 20.8498C0.71598 20.8068 0.731116 20.7647 0.747233 20.7217C0.779377 20.6312 0.81339 20.5417 0.848206 20.4521C0.864322 20.4091 0.88124 20.367 0.898247 20.3249C0.925938 20.255 0.954521 20.1852 0.984082 20.1154C1.00732 20.0599 1.03145 20.0043 1.05558 19.9488C1.07971 19.8933 1.10384 19.8386 1.12886 19.7841C1.15745 19.7213 1.18701 19.6587 1.21559 19.5969C1.23794 19.5504 1.26029 19.5038 1.28353 19.4572C1.31033 19.4026 1.33713 19.3488 1.36402 19.2951C1.39171 19.2414 1.41851 19.1877 1.44719 19.1348C1.47488 19.0811 1.50257 19.0283 1.53213 18.9754C1.56071 18.9226 1.58938 18.8697 1.61886 18.8178C1.64477 18.7713 1.67157 18.7247 1.69837 18.679C1.85571 18.405 2.02373 18.1372 2.20163 17.8758C2.22932 17.8337 2.2579 17.7916 2.28747 17.7504C2.83632 16.9614 3.47011 16.2344 4.1754 15.5806C4.43825 15.3379 4.71081 15.1051 4.99245 14.883C9.33409 11.4603 11.3016 5.82655 10.0448 0.437331C9.96619 0.0997021 10.2728 0.00211549 10.4605 0.0460028C10.4694 0.0486789 10.4784 0.0513549 10.4873 0.054031C10.4917 0.055815 10.4971 0.057599 10.5016 0.058491C10.5624 0.0790967 10.6231 0.0988103 10.6831 0.120308C10.8404 0.174008 10.9968 0.231364 11.1515 0.290416C11.1962 0.307453 11.2409 0.325383 11.2847 0.342331C11.3383 0.363829 11.392 0.385327 11.4447 0.406824C11.4894 0.424754 11.5332 0.442683 11.577 0.461416C11.628 0.482913 11.678 0.504411 11.7281 0.525909C11.7844 0.550082 11.8408 0.575148 11.897 0.600214C12.0258 0.657571 12.1536 0.716623 12.2805 0.777547C12.3368 0.804397 12.3932 0.832139 12.4486 0.85997C12.5559 0.912777 12.6631 0.967458 12.7695 1.02294C12.824 1.05158 12.8777 1.07932 12.9313 1.10893C12.9965 1.1439 13.0609 1.17878 13.1252 1.21553C13.5105 1.42863 13.8885 1.65877 14.2605 1.90417C14.3257 1.94716 14.3901 1.99016 14.4545 2.03404C14.9622 2.37881 15.4574 2.7531 15.9384 3.15255C15.9983 3.20179 16.0572 3.25192 16.1163 3.30214C16.3048 3.46244 16.4917 3.6263 16.6759 3.79471C16.734 3.84841 16.7921 3.9022 16.8502 3.9559C17.1497 4.23439 17.4429 4.52367 17.7308 4.82276C17.7799 4.87468 17.8299 4.92668 17.8792 4.97949C17.9418 5.04577 18.0043 5.11205 18.066 5.17921C18.1143 5.23202 18.1625 5.28492 18.2108 5.33773C18.2662 5.39865 18.3207 5.45859 18.3752 5.52041C18.436 5.58847 18.4959 5.65653 18.5558 5.72549C18.5978 5.77383 18.6399 5.82307 18.6819 5.87142C18.7409 5.94037 18.799 6.00933 18.8571 6.07828C18.9098 6.14188 18.9626 6.20459 19.0145 6.2681C19.0672 6.3317 19.12 6.39619 19.1709 6.4606C19.2201 6.52063 19.2683 6.58147 19.3157 6.64239C19.3469 6.68004 19.3765 6.71759 19.406 6.75612C19.448 6.80804 19.4891 6.86094 19.5293 6.91464C19.5633 6.95852 19.5972 7.00241 19.6303 7.0463C19.7312 7.17885 19.8305 7.3123 19.9297 7.44664C20.0298 7.58365 20.1291 7.72066 20.2265 7.85946C20.2739 7.92574 20.3194 7.99202 20.3659 8.05829C20.4133 8.12635 20.4607 8.1962 20.508 8.26515C20.5554 8.33411 20.6019 8.40395 20.6484 8.4738C20.6859 8.52839 20.7225 8.58396 20.7592 8.63944C21.4618 9.70603 22.1019 10.829 22.6731 11.9869C22.7401 12.123 22.8063 12.2592 22.8715 12.3962C23.1933 13.0705 23.491 13.7556 23.7645 14.4478C23.7949 14.5248 23.8253 14.6019 23.8548 14.6789C23.8852 14.7558 23.9147 14.8329 23.9433 14.9108C23.9728 14.9878 24.0015 15.0648 24.0301 15.1427C24.0586 15.2197 24.0873 15.2968 24.115 15.3746C24.2026 15.6173 24.2876 15.8609 24.3689 16.1045C24.3912 16.1725 24.4144 16.2397 24.4359 16.3078C24.4618 16.3856 24.4877 16.4636 24.5119 16.5415C24.5369 16.6202 24.5619 16.6982 24.586 16.7761C24.6522 16.9892 24.7157 17.2024 24.7773 17.4155C24.7889 17.4567 24.8005 17.497 24.8122 17.5372C24.8292 17.5964 24.8452 17.6554 24.8622 17.7146C24.8837 17.7933 24.9052 17.8722 24.9266 17.9501C24.9472 18.0279 24.9677 18.1068 24.9883 18.1847C25.0107 18.2671 25.0312 18.3494 25.0518 18.4318C25.0876 18.5742 25.1224 18.7166 25.1573 18.859C25.1779 18.9477 25.1985 19.0364 25.219 19.125C25.2529 19.2773 25.287 19.4286 25.3191 19.5809C25.32 19.5853 25.3209 19.5898 25.3218 19.5943C25.3548 19.7502 25.3862 19.9051 25.4165 20.06C25.5229 20.6071 25.6132 21.1525 25.6856 21.6934C25.6963 21.7713 25.7062 21.8484 25.716 21.9254C25.7195 21.9558 25.7231 21.9854 25.7266 22.0158C25.7445 22.1573 25.7607 22.2979 25.7749 22.4384C25.7838 22.5172 25.7919 22.5961 25.799 22.6739C25.8143 22.8307 25.8285 22.9874 25.8402 23.1423C25.8517 23.2937 25.8625 23.445 25.8714 23.5955C25.8768 23.6859 25.8821 23.7764 25.8858 23.8659C25.8893 23.9331 25.892 24.0012 25.8956 24.0683V24.0728C25.8982 24.1462 25.9009 24.2196 25.9036 24.2922V24.3111C25.9053 24.3505 25.9062 24.3898 25.9071 24.4292C25.908 24.4623 25.9089 24.4955 25.9089 24.5286C25.9107 24.6074 25.9116 24.6862 25.9116 24.7641Z" fill="url(#paint2_radial_68_1665)"/>
<path d="M22.9667 24.0899C22.6911 29.88 17.7647 34.4478 11.9895 34.0886C6.2606 33.7322 1.92287 28.7747 2.31198 23.0458C2.51215 20.0998 3.98462 17.5297 6.14529 15.7856C9.80123 12.8345 12.1655 7.94709 12.0874 3.24428C12.0874 3.24392 12.0876 3.24258 12.0882 3.24035C12.1752 2.91289 12.537 2.74136 12.8476 2.87543C19.7222 5.84139 23.3267 16.5244 22.9667 24.0899Z" fill="url(#paint3_linear_68_1665)"/>
</g>
<defs>
<radialGradient id="paint0_radial_68_1665" cx="0" cy="0" r="1" gradientUnits="userSpaceOnUse" gradientTransform="translate(-0.656553 -0.0702333) scale(37.6861 37.7542)">
<stop stop-color="#FFCF42"/>
<stop offset="0.262" stop-color="#FFCD42"/>
<stop offset="0.408" stop-color="#FFC540"/>
<stop offset="0.525" stop-color="#FFB73E"/>
<stop offset="0.628" stop-color="#FFA33A"/>
<stop offset="0.72" stop-color="#FF8A35"/>
<stop offset="0.805" stop-color="#FF6A30"/>
<stop offset="0.885" stop-color="#FF4529"/>
<stop offset="0.958" stop-color="#FF1B21"/>
<stop offset="1" stop-color="#FF001C"/>
</radialGradient>
<radialGradient id="paint1_radial_68_1665" cx="0" cy="0" r="1" gradientUnits="userSpaceOnUse" gradientTransform="translate(14.3612 20.5675) scale(14.1421 14.1677)">
<stop stop-color="#FFB500" stop-opacity="0"/>
<stop offset="0.109" stop-color="#FCAD01" stop-opacity="0.109"/>
<stop offset="0.281" stop-color="#F49605" stop-opacity="0.281"/>
<stop offset="0.496" stop-color="#E8710B" stop-opacity="0.496"/>
<stop offset="0.744" stop-color="#D63D13" stop-opacity="0.744"/>
<stop offset="1" stop-color="#C1001C"/>
</radialGradient>
<radialGradient id="paint2_radial_68_1665" cx="0" cy="0" r="1" gradientUnits="userSpaceOnUse" gradientTransform="translate(9.51361 11.9447) scale(25.0958 25.1411)">
<stop stop-color="#F9C6A0" stop-opacity="0"/>
<stop offset="0.014" stop-color="#F9C69E" stop-opacity="0"/>
<stop offset="0.02" stop-color="#FAC797" stop-opacity="0"/>
<stop offset="0.023" stop-color="#FAC88C" stop-opacity="0"/>
<stop offset="0.026" stop-color="#FBCA7B" stop-opacity="0"/>
<stop offset="0.029" stop-color="#FDCC65" stop-opacity="0"/>
<stop offset="0.031" stop-color="#FECE4A" stop-opacity="0"/>
<stop offset="0.032" stop-color="#FFCF42" stop-opacity="0"/>
<stop offset="0.408" stop-color="#FFCD42" stop-opacity="0.389"/>
<stop offset="0.543" stop-color="#FFC640" stop-opacity="0.529"/>
<stop offset="0.64" stop-color="#FFBB3E" stop-opacity="0.628"/>
<stop offset="0.718" stop-color="#FFAA3B" stop-opacity="0.709"/>
<stop offset="0.785" stop-color="#FF9437" stop-opacity="0.778"/>
<stop offset="0.845" stop-color="#FF7832" stop-opacity="0.839"/>
<stop offset="0.898" stop-color="#FF582C" stop-opacity="0.895"/>
<stop offset="0.947" stop-color="#FF3225" stop-opacity="0.946"/>
<stop offset="0.991" stop-color="#FF091E" stop-opacity="0.991"/>
<stop offset="1" stop-color="#FF001C"/>
</radialGradient>
<linearGradient id="paint3_linear_68_1665" x1="17.758" y1="16.2346" x2="40.9593" y2="2.79014" gradientUnits="userSpaceOnUse">
<stop offset="0.0001" stop-color="#E7EEED" stop-opacity="0"/>
<stop offset="1" stop-color="#E7EEED"/>
</linearGradient>
<clipPath id="clip0_68_1665">
<rect width="26" height="38" fill="white"/>
</clipPath>
</defs>
</svg>
