<svg width="21" height="20" viewBox="0 0 21 20" fill="none" xmlns="http://www.w3.org/2000/svg">
<path d="M10.5 18.9577C5.55829 18.9577 1.54163 14.941 1.54163 9.99935C1.54163 5.05768 5.55829 1.04102 10.5 1.04102C15.4416 1.04102 19.4583 5.05768 19.4583 9.99935C19.4583 14.941 15.4416 18.9577 10.5 18.9577ZM10.5 2.29102C6.24996 2.29102 2.79163 5.74935 2.79163 9.99935C2.79163 14.2493 6.24996 17.7077 10.5 17.7077C14.75 17.7077 18.2083 14.2493 18.2083 9.99935C18.2083 5.74935 14.75 2.29102 10.5 2.29102Z" fill="#1B5E37"/>
<path d="M7.99995 18.125H7.16662C6.82495 18.125 6.54162 17.8417 6.54162 17.5C6.54162 17.1583 6.80828 16.8833 7.14995 16.875C5.84162 12.4083 5.84162 7.59167 7.14995 3.125C6.80828 3.11667 6.54162 2.84167 6.54162 2.5C6.54162 2.15833 6.82495 1.875 7.16662 1.875H7.99995C8.19995 1.875 8.39162 1.975 8.50828 2.13333C8.62495 2.3 8.65828 2.50833 8.59162 2.7C7.02495 7.40833 7.02495 12.5917 8.59162 17.3083C8.65828 17.5 8.62495 17.7083 8.50828 17.875C8.39162 18.025 8.19995 18.125 7.99995 18.125Z" fill="#1B5E37"/>
<path d="M13 18.1243C12.9333 18.1243 12.8667 18.1159 12.8 18.0909C12.475 17.9826 12.2917 17.6243 12.4083 17.2993C13.975 12.5909 13.975 7.40759 12.4083 2.69092C12.3 2.36592 12.475 2.00759 12.8 1.89925C13.1333 1.79092 13.4833 1.96592 13.5917 2.29092C15.25 7.25759 15.25 12.7243 13.5917 17.6826C13.5083 17.9576 13.2583 18.1243 13 18.1243Z" fill="#1B5E37"/>
<path d="M10.5 14.334C8.175 14.334 5.85833 14.009 3.625 13.3506C3.61667 13.684 3.34167 13.959 3 13.959C2.65833 13.959 2.375 13.6756 2.375 13.334V12.5006C2.375 12.3006 2.475 12.109 2.63333 11.9923C2.8 11.8756 3.00833 11.8423 3.2 11.909C7.90833 13.4756 13.1 13.4756 17.8083 11.909C18 11.8423 18.2083 11.8756 18.375 11.9923C18.5417 12.109 18.6333 12.3006 18.6333 12.5006V13.334C18.6333 13.6756 18.35 13.959 18.0083 13.959C17.6667 13.959 17.3917 13.6923 17.3833 13.3506C15.1417 14.009 12.825 14.334 10.5 14.334Z" fill="#1B5E37"/>
<path d="M18 8.12448C17.9334 8.12448 17.8667 8.11615 17.8 8.09115C13.0917 6.52448 7.90002 6.52448 3.19169 8.09115C2.85836 8.19948 2.50836 8.02448 2.40002 7.69948C2.30002 7.36615 2.47502 7.01615 2.80002 6.90781C7.76669 5.24948 13.2334 5.24948 18.1917 6.90781C18.5167 7.01615 18.7 7.37448 18.5834 7.69948C18.5084 7.95781 18.2584 8.12448 18 8.12448Z" fill="#1B5E37"/>
</svg>
