<svg width="21" height="20" viewBox="0 0 21 20" fill="none" xmlns="http://www.w3.org/2000/svg">
<path d="M10.5 18.9577C5.55829 18.9577 1.54163 14.941 1.54163 9.99935C1.54163 5.05768 5.55829 1.04102 10.5 1.04102C15.4416 1.04102 19.4583 5.05768 19.4583 9.99935C19.4583 14.941 15.4416 18.9577 10.5 18.9577ZM10.5 2.29102C6.24996 2.29102 2.79163 5.74935 2.79163 9.99935C2.79163 14.2493 6.24996 17.7077 10.5 17.7077C14.75 17.7077 18.2083 14.2493 18.2083 9.99935C18.2083 5.74935 14.75 2.29102 10.5 2.29102Z" fill="#1B5E37"/>
<path d="M10.5 11.4577C10.1583 11.4577 9.875 11.1743 9.875 10.8327V6.66602C9.875 6.32435 10.1583 6.04102 10.5 6.04102C10.8417 6.04102 11.125 6.32435 11.125 6.66602V10.8327C11.125 11.1743 10.8417 11.4577 10.5 11.4577Z" fill="#1B5E37"/>
<path d="M10.5 14.1664C10.3916 14.1664 10.2833 14.1414 10.1833 14.0997C10.0833 14.0581 9.99163 13.9997 9.90829 13.9247C9.83329 13.8414 9.77496 13.7581 9.73329 13.6497C9.69163 13.5497 9.66663 13.4414 9.66663 13.3331C9.66663 13.2247 9.69163 13.1164 9.73329 13.0164C9.77496 12.9164 9.83329 12.8247 9.90829 12.7414C9.99163 12.6664 10.0833 12.6081 10.1833 12.5664C10.3833 12.4831 10.6166 12.4831 10.8166 12.5664C10.9166 12.6081 11.0083 12.6664 11.0916 12.7414C11.1666 12.8247 11.225 12.9164 11.2666 13.0164C11.3083 13.1164 11.3333 13.2247 11.3333 13.3331C11.3333 13.4414 11.3083 13.5497 11.2666 13.6497C11.225 13.7581 11.1666 13.8414 11.0916 13.9247C11.0083 13.9997 10.9166 14.0581 10.8166 14.0997C10.7166 14.1414 10.6083 14.1664 10.5 14.1664Z" fill="#1B5E37"/>
</svg>
