<svg width="21" height="20" viewBox="0 0 21 20" fill="none" xmlns="http://www.w3.org/2000/svg">
<path d="M4.66669 18.2251C4.05002 18.2251 3.44169 17.9917 2.97502 17.5251C2.52502 17.0751 2.27502 16.4751 2.27502 15.8334C2.27502 15.1917 2.52502 14.5917 2.97502 14.1417L13.8084 3.3084C14.7417 2.37507 16.2584 2.37507 17.1917 3.3084C17.6417 3.7584 17.8917 4.3584 17.8917 5.00007C17.8917 5.64173 17.6417 6.24173 17.1917 6.69173L6.35836 17.5251C5.89169 17.9917 5.28336 18.2251 4.66669 18.2251ZM15.5 3.8584C15.2084 3.8584 14.9167 3.96673 14.6917 4.19173L3.85836 15.0251C3.64169 15.2417 3.52502 15.5251 3.52502 15.8334C3.52502 16.1417 3.64169 16.4251 3.85836 16.6417C4.30002 17.0834 5.03336 17.0834 5.47502 16.6417L16.3084 5.8084C16.525 5.59173 16.6417 5.3084 16.6417 5.00007C16.6417 4.69173 16.525 4.4084 16.3084 4.19173C16.0834 3.96673 15.7917 3.8584 15.5 3.8584Z" fill="#1B5E37"/>
<path d="M15.5083 8.11706C15.35 8.11706 15.1916 8.05872 15.0666 7.93372L12.5666 5.43372C12.325 5.19206 12.325 4.79206 12.5666 4.55039C12.8083 4.30872 13.2083 4.30872 13.45 4.55039L15.95 7.05039C16.1916 7.29206 16.1916 7.69206 15.95 7.93372C15.825 8.05872 15.6666 8.11706 15.5083 8.11706Z" fill="#1B5E37"/>
<path d="M8.83338 4.58354C8.79171 4.58354 8.75838 4.57521 8.71671 4.56687L7.58338 4.23354L6.45004 4.56687C6.30004 4.60854 6.14171 4.56687 6.04171 4.45854C5.93338 4.35021 5.89171 4.20021 5.93338 4.05021L6.26671 2.91687L5.93338 1.78354C5.89171 1.63354 5.93338 1.47521 6.04171 1.37521C6.15004 1.26687 6.30838 1.22521 6.45004 1.26687L7.58338 1.60021L8.71671 1.26687C8.86671 1.22521 9.01671 1.26687 9.12504 1.37521C9.23338 1.48354 9.27504 1.64187 9.23338 1.78354L8.90004 2.91687L9.23338 4.05021C9.27504 4.20021 9.23338 4.35854 9.12504 4.45854C9.05004 4.54187 8.94171 4.58354 8.83338 4.58354ZM7.58338 3.38354C7.62504 3.38354 7.65838 3.39187 7.70004 3.40021L8.21671 3.55021L8.06671 3.03354C8.04171 2.95854 8.04171 2.87521 8.06671 2.80021L8.21671 2.28354L7.70004 2.43354C7.62504 2.45854 7.54171 2.45854 7.46671 2.43354L6.95004 2.28354L7.10004 2.80021C7.12504 2.87521 7.12504 2.95854 7.10004 3.03354L6.95004 3.55021L7.46671 3.40021C7.50838 3.39187 7.54171 3.38354 7.58338 3.38354Z" fill="#1B5E37"/>
<path d="M5.5 9.58354C5.45834 9.58354 5.425 9.5752 5.38334 9.56687L4.25 9.23354L3.11667 9.56687C2.96667 9.60854 2.81667 9.56687 2.70834 9.45854C2.6 9.35021 2.55834 9.19187 2.6 9.0502L2.93334 7.91687L2.6 6.78354C2.55834 6.63354 2.6 6.47521 2.70834 6.37521C2.81667 6.27521 2.975 6.22521 3.11667 6.26687L4.25 6.60021L5.38334 6.26687C5.525 6.22521 5.68334 6.26687 5.79167 6.37521C5.9 6.48354 5.94167 6.64187 5.9 6.78354L5.56667 7.91687L5.9 9.0502C5.94167 9.2002 5.9 9.35854 5.79167 9.45854C5.71667 9.54187 5.60834 9.58354 5.5 9.58354ZM4.25 8.38354C4.29167 8.38354 4.325 8.39187 4.36667 8.40021L4.88334 8.55021L4.73334 8.03354C4.70834 7.95854 4.70834 7.87521 4.73334 7.8002L4.88334 7.28354L4.36667 7.43354C4.29167 7.45854 4.20834 7.45854 4.13334 7.43354L3.61667 7.28354L3.76667 7.8002C3.79167 7.87521 3.79167 7.95854 3.76667 8.03354L3.61667 8.55021L4.13334 8.40021C4.175 8.39187 4.20834 8.38354 4.25 8.38354Z" fill="#1B5E37"/>
<path d="M18 13.7496C17.9583 13.7496 17.925 13.7412 17.8833 13.7329L16.75 13.3996L15.6167 13.7329C15.4667 13.7746 15.3167 13.7329 15.2083 13.6246C15.1 13.5162 15.0583 13.3579 15.1 13.2162L15.4333 12.0829L15.1 10.9496C15.0583 10.7996 15.1 10.6412 15.2083 10.5412C15.3167 10.4412 15.475 10.3912 15.6167 10.4329L16.75 10.7662L17.8833 10.4329C18.025 10.3912 18.1833 10.4329 18.2917 10.5412C18.4 10.6496 18.4417 10.8079 18.4 10.9496L18.0667 12.0829L18.4 13.2162C18.4417 13.3662 18.4 13.5246 18.2917 13.6246C18.2167 13.7079 18.1083 13.7496 18 13.7496ZM16.75 12.5496C16.7917 12.5496 16.825 12.5579 16.8667 12.5662L17.3833 12.7162L17.2333 12.1996C17.2083 12.1246 17.2083 12.0412 17.2333 11.9662L17.3833 11.4496L16.8667 11.5996C16.7917 11.6246 16.7083 11.6246 16.6333 11.5996L16.1167 11.4496L16.2667 11.9662C16.2917 12.0412 16.2917 12.1246 16.2667 12.1996L16.1167 12.7162L16.6333 12.5662C16.675 12.5579 16.7083 12.5496 16.75 12.5496Z" fill="#1B5E37"/>
</svg>
