<svg width="21" height="20" viewBox="0 0 21 20" fill="none" xmlns="http://www.w3.org/2000/svg">
<path d="M10.5 18.0423C10.2416 18.0423 9.99163 18.009 9.78329 17.934C6.59996 16.8423 1.54163 12.9673 1.54163 7.24232C1.54163 4.32565 3.89996 1.95898 6.79996 1.95898C8.20829 1.95898 9.52496 2.50898 10.5 3.49232C11.475 2.50898 12.7916 1.95898 14.2 1.95898C17.1 1.95898 19.4583 4.33398 19.4583 7.24232C19.4583 12.9757 14.4 16.8423 11.2166 17.934C11.0083 18.009 10.7583 18.0423 10.5 18.0423ZM6.79996 3.20898C4.59163 3.20898 2.79163 5.01732 2.79163 7.24232C2.79163 12.934 8.26663 16.1007 10.1916 16.759C10.3416 16.809 10.6666 16.809 10.8166 16.759C12.7333 16.1007 18.2166 12.9423 18.2166 7.24232C18.2166 5.01732 16.4166 3.20898 14.2083 3.20898C12.9416 3.20898 11.7666 3.80065 11.0083 4.82565C10.775 5.14232 10.2416 5.14232 10.0083 4.82565C9.23329 3.79232 8.06663 3.20898 6.79996 3.20898Z" fill="#1B5E37"/>
</svg>
