<svg width="32" height="32" viewBox="0 0 32 32" fill="none" xmlns="http://www.w3.org/2000/svg">
<g clip-path="url(#clip0_68_1650)">
<path d="M17.1406 1.90537L21.241 10.2135L30.4095 11.5457C31.4528 11.6973 31.8694 12.9795 31.1145 13.7154L24.48 20.1823L26.0461 29.3137C26.2244 30.3528 25.1337 31.1453 24.2006 30.6547L15.9999 26.3434L7.79939 30.6547C6.86625 31.1452 5.77556 30.3528 5.95381 29.3137L7.51997 20.1823L0.885512 13.7154C0.130556 12.9794 0.547177 11.6973 1.59052 11.5457L10.759 10.2134L14.8593 1.90537C15.3259 0.95993 16.674 0.95993 17.1406 1.90537Z" fill="url(#paint0_linear_68_1650)"/>
<path d="M21.2409 10.2134L17.1406 1.90535C16.9074 1.43266 16.4537 1.19629 16 1.19629V16.9256L21.2409 10.2134Z" fill="url(#paint1_linear_68_1650)"/>
<path d="M24.48 20.1821L31.1144 13.7151C31.4868 13.3521 31.5737 12.8563 31.4413 12.4287L15.9999 16.9254L24.48 20.1821Z" fill="url(#paint2_linear_68_1650)"/>
<path d="M25.5439 30.5551L15.9999 16.9258V26.3436L24.2005 30.6549C24.6688 30.901 25.1766 30.824 25.5439 30.5551Z" fill="url(#paint3_linear_68_1650)"/>
<path d="M16 16.9258L7.51991 20.1825L5.95381 29.3139C5.86499 29.8316 6.09131 30.2879 6.45599 30.5551L16 16.9258Z" fill="url(#paint4_linear_68_1650)"/>
<path d="M0.558594 12.4289L15.9999 16.9256L10.759 10.2134L1.59049 11.5457C1.06186 11.6225 0.694581 11.9897 0.558594 12.4289Z" fill="url(#paint5_linear_68_1650)"/>
<path d="M7.51997 20.1826L0.885514 13.7156C0.513092 13.3526 0.426208 12.8568 0.558623 12.4292L16 16.9259L7.51997 20.1826Z" fill="url(#paint6_linear_68_1650)"/>
</g>
<defs>
<linearGradient id="paint0_linear_68_1650" x1="16.0005" y1="4.6492" x2="16.0005" y2="38.8541" gradientUnits="userSpaceOnUse">
<stop stop-color="#FFCF95"/>
<stop offset="0.427" stop-color="#FFC954"/>
<stop offset="1" stop-color="#FFC200"/>
</linearGradient>
<linearGradient id="paint1_linear_68_1650" x1="24.0348" y1="9.06015" x2="13.6948" y2="9.06015" gradientUnits="userSpaceOnUse">
<stop stop-color="#FFC200" stop-opacity="0"/>
<stop offset="0.203" stop-color="#FFBB00" stop-opacity="0.203"/>
<stop offset="0.499" stop-color="#FFA700" stop-opacity="0.499"/>
<stop offset="0.852" stop-color="#FF8800" stop-opacity="0.852"/>
<stop offset="1" stop-color="#FF7800"/>
</linearGradient>
<linearGradient id="paint2_linear_68_1650" x1="25.8012" y1="24.9023" x2="23.0628" y2="11.4169" gradientUnits="userSpaceOnUse">
<stop stop-color="#FFC200" stop-opacity="0"/>
<stop offset="0.203" stop-color="#FFBB00" stop-opacity="0.203"/>
<stop offset="0.499" stop-color="#FFA700" stop-opacity="0.499"/>
<stop offset="0.852" stop-color="#FF8800" stop-opacity="0.852"/>
<stop offset="1" stop-color="#FF7800"/>
</linearGradient>
<linearGradient id="paint3_linear_68_1650" x1="12.5232" y1="31.9895" x2="23.2482" y2="21.2645" gradientUnits="userSpaceOnUse">
<stop stop-color="#FFC200" stop-opacity="0"/>
<stop offset="0.203" stop-color="#FFBB00" stop-opacity="0.203"/>
<stop offset="0.499" stop-color="#FFA700" stop-opacity="0.499"/>
<stop offset="0.852" stop-color="#FF8800" stop-opacity="0.852"/>
<stop offset="1" stop-color="#FF7800"/>
</linearGradient>
<linearGradient id="paint4_linear_68_1650" x1="4.87501" y1="18.4267" x2="12.7802" y2="25.0402" gradientUnits="userSpaceOnUse">
<stop stop-color="#FFC200" stop-opacity="0"/>
<stop offset="0.203" stop-color="#FFBB00" stop-opacity="0.203"/>
<stop offset="0.499" stop-color="#FFA700" stop-opacity="0.499"/>
<stop offset="0.852" stop-color="#FF8800" stop-opacity="0.852"/>
<stop offset="1" stop-color="#FF7800"/>
</linearGradient>
<linearGradient id="paint5_linear_68_1650" x1="10.801" y1="7.5173" x2="7.59761" y2="16.6109" gradientUnits="userSpaceOnUse">
<stop stop-color="#FFC200" stop-opacity="0"/>
<stop offset="0.203" stop-color="#FFBB00" stop-opacity="0.203"/>
<stop offset="0.499" stop-color="#FFA700" stop-opacity="0.499"/>
<stop offset="0.852" stop-color="#FF8800" stop-opacity="0.852"/>
<stop offset="1" stop-color="#FF7800"/>
</linearGradient>
<linearGradient id="paint6_linear_68_1650" x1="22.8595" y1="8.46723" x2="-0.67529" y2="18.4908" gradientUnits="userSpaceOnUse">
<stop stop-color="#FFC200" stop-opacity="0"/>
<stop offset="0.203" stop-color="#FFBB00" stop-opacity="0.203"/>
<stop offset="0.499" stop-color="#FFA700" stop-opacity="0.499"/>
<stop offset="0.852" stop-color="#FF8800" stop-opacity="0.852"/>
<stop offset="1" stop-color="#FF7800"/>
</linearGradient>
<clipPath id="clip0_68_1650">
<rect width="31" height="31" fill="white" transform="translate(0.5 0.5)"/>
</clipPath>
</defs>
</svg>
