<svg xmlns="http://www.w3.org/2000/svg" viewBox="0 0 48 48"><title>16-support</title><g id="_16-support" data-name="16-support"><path d="M24.714,40H20V38h4.714c3.8,0,4.87-2.538,5.169-4h-14.6A5.155,5.155,0,0,0,10,39H8a7.156,7.156,0,0,1,7.286-7H31a1,1,0,0,1,1,1A6.868,6.868,0,0,1,24.714,40Z"/><path d="M32,48H11a3,3,0,0,1-3-3V42h2v3a1,1,0,0,0,1,1H31.7l13.964-9.182a.962.962,0,0,0-.011-1.467,1.467,1.467,0,0,0-1.7-.146l-10.438,6.35a1.006,1.006,0,0,1-1,.025l-5-2.7.952-1.76,4.5,2.428L42.92,33.5A3.438,3.438,0,0,1,47,33.874a2.964,2.964,0,0,1-.076,4.5,1.066,1.066,0,0,1-.1.076L32.551,47.836A1.015,1.015,0,0,1,32,48Z"/><path d="M9,47H1a1,1,0,0,1-1-1V36a1,1,0,0,1,1-1h9v2H2v8H9Z"/><path d="M20,27a1,1,0,0,1-.707-.293L14.586,22H5a5.006,5.006,0,0,1-5-5V5A5.006,5.006,0,0,1,5,0H25a5.006,5.006,0,0,1,5,5V17a5.006,5.006,0,0,1-5,5H21v4a1,1,0,0,1-.617.924A.987.987,0,0,1,20,27ZM5,2A3,3,0,0,0,2,5V17a3,3,0,0,0,3,3H15a1,1,0,0,1,.707.293L19,23.586V21a1,1,0,0,1,1-1h5a3,3,0,0,0,3-3V5a3,3,0,0,0-3-3Z"/><path d="M35,32a.987.987,0,0,1-.383-.076A1,1,0,0,1,34,31V28H27a1,1,0,0,1-1-1V24h2v2h7a1,1,0,0,1,1,1v1.586l2.293-2.293A1,1,0,0,1,39,26h7V14H32V12H47a1,1,0,0,1,1,1V27a1,1,0,0,1-1,1H39.414l-3.707,3.707A1,1,0,0,1,35,32Z"/><rect x="42" y="19" width="2" height="2"/><rect x="32" y="19" width="8" height="2"/><path d="M7,14a3,3,0,1,1,3-3A3,3,0,0,1,7,14Zm0-4a1,1,0,1,0,1,1A1,1,0,0,0,7,10Z"/><path d="M15,14a3,3,0,1,1,3-3A3,3,0,0,1,15,14Zm0-4a1,1,0,1,0,1,1A1,1,0,0,0,15,10Z"/><path d="M23,14a3,3,0,1,1,3-3A3,3,0,0,1,23,14Zm0-4a1,1,0,1,0,1,1A1,1,0,0,0,23,10Z"/></g></svg>